<?xml version="1.0" standalone="no"?>
<!DOCTYPE svg PUBLIC "-//W3C//DTD SVG 20010904//EN"
 "http://www.w3.org/TR/2001/REC-SVG-20010904/DTD/svg10.dtd">
<svg version="1.0" xmlns="http://www.w3.org/2000/svg"
 width="1247.000000pt" height="1247.000000pt" viewBox="0 0 1247.000000 1247.000000"
 preserveAspectRatio="xMidYMid meet">
<metadata>
Created by potrace 1.11, written by Peter Selinger 2001-2013
</metadata>
<g transform="translate(0.000000,1247.000000) scale(0.100000,-0.100000)"
fill="#000000" stroke="none">
<path d="M8181 12448 c-11 -12 -53 -16 -174 -18 -47 0 -77 -15 -77 -37 0 -10
-6 -14 -20 -10 -12 3 -24 -1 -29 -11 -7 -11 -22 -15 -58 -13 -37 1 -56 -3 -75
-19 -28 -21 -111 -61 -141 -67 -25 -4 -184 -134 -192 -156 -4 -10 -17 -23 -30
-29 -12 -5 -40 -33 -61 -62 -21 -28 -41 -53 -44 -56 -3 -3 -12 -18 -20 -34 -8
-16 -32 -40 -53 -53 -38 -24 -39 -24 -44 -4 -5 21 -14 26 -26 14 -4 -3 -2 -12
5 -20 9 -11 5 -20 -17 -43 -15 -15 -24 -33 -20 -39 3 -6 8 -30 10 -54 2 -23 7
-73 11 -111 5 -52 3 -70 -7 -77 -19 -11 -4 -23 46 -37 22 -6 57 -27 78 -45 37
-35 99 -134 110 -178 3 -13 16 -28 28 -34 33 -15 51 -77 47 -170 -3 -93 3
-109 35 -94 23 11 71 -6 75 -26 3 -16 63 -18 75 -1 7 8 38 23 70 34 58 19 82
18 137 -8 25 -11 56 -85 116 -275 31 -99 60 -187 64 -196 14 -28 23 -89 13
-89 -6 0 -20 9 -33 20 -31 27 -40 15 -33 -41 5 -46 12 -56 100 -141 17 -17 39
-28 55 -28 15 0 33 -7 40 -16 37 -47 183 -194 218 -219 36 -27 40 -34 36 -63
-6 -39 -55 -102 -93 -117 -30 -12 -75 -6 -131 16 -31 13 -35 12 -50 -8 -9 -11
-27 -24 -38 -27 -27 -8 -57 -35 -73 -63 -16 -31 -63 -54 -120 -58 -63 -4 -86
-17 -100 -56 l-11 -32 -20 23 c-21 25 -17 48 6 29 11 -9 15 -8 20 5 4 11 -1
22 -12 31 -29 22 -44 18 -56 -15 -11 -34 -30 -41 -109 -42 -91 -2 -130 15
-200 87 -35 36 -69 65 -76 65 -15 0 -10 -82 13 -237 3 -18 -3 -61 -14 -95 -11
-35 -30 -97 -42 -138 -29 -98 -42 -117 -89 -130 -21 -5 -42 -18 -45 -28 -17
-44 -129 -224 -163 -262 -13 -14 -23 -30 -23 -37 0 -17 -30 -17 -30 0 -4 109
-11 146 -41 202 -25 48 -58 142 -73 210 -1 6 -10 27 -19 49 -9 21 -17 43 -17
49 0 12 -39 76 -62 101 -9 10 -31 63 -48 117 -18 55 -35 99 -39 99 -4 0 -27
35 -51 78 -24 42 -59 97 -79 122 -48 60 -213 220 -227 220 -4 0 -59 40 -123
88 -64 48 -131 94 -149 101 -42 18 -49 29 -21 40 27 9 43 1 219 -115 148 -98
265 -207 355 -333 21 -29 41 -49 46 -44 12 12 19 126 20 296 0 81 2 147 3 147
4 0 15 -29 101 -270 104 -289 160 -398 253 -488 41 -39 134 -109 140 -104 11
10 23 -5 28 -38 8 -51 19 -44 39 27 9 32 26 76 37 98 20 39 32 76 65 215 22
88 21 106 -11 175 -16 33 -35 74 -42 91 -22 46 -83 102 -93 85 -6 -9 -10 -6
-15 14 -7 26 -30 30 -32 7 -1 -7 -2 -15 -3 -18 0 -4 -12 1 -26 10 -23 15 -25
15 -44 -5 l-19 -20 -15 22 c-10 13 -22 19 -32 16 -13 -5 -14 -3 -5 13 9 17 7
20 -12 21 -13 1 -27 1 -31 0 -5 -1 -11 8 -14 19 -4 16 -8 18 -19 9 -11 -9 -14
-9 -14 0 0 7 -10 10 -25 7 -25 -5 -43 8 -26 19 12 7 -24 71 -45 79 -12 5 -13
10 -3 27 9 17 8 23 -2 30 -8 5 -9 9 -4 9 12 0 37 50 25 50 -5 0 -16 15 -25 33
-18 34 -23 90 -27 322 -2 140 1 167 28 280 8 33 17 75 20 94 6 45 7 46 62 78
59 34 90 66 98 101 3 15 22 56 41 91 19 35 32 69 29 76 -5 15 -68 15 -78 1 -9
-14 -40 -17 -55 -4 -9 7 -13 7 -13 -1 0 -6 -8 -11 -19 -11 -25 0 -41 -21 -44
-59 -3 -41 -17 -40 -17 2 0 42 -16 60 -42 46 -10 -5 -18 -8 -18 -5 0 3 -12 -6
-26 -19 -14 -13 -36 -27 -48 -31 -11 -3 -33 -19 -47 -34 -14 -16 -41 -46 -61
-68 -32 -35 -78 -66 -63 -42 3 6 0 10 -8 10 -16 0 -27 -21 -27 -50 0 -14 -6
-18 -25 -15 -14 1 -25 -1 -25 -6 0 -4 -15 -10 -32 -14 -18 -4 -58 -15 -88 -25
-30 -10 -58 -16 -62 -14 -18 11 -6 32 25 44 17 6 43 17 57 23 14 6 29 10 33 9
17 -4 69 31 85 57 9 15 21 28 27 29 5 0 11 5 13 11 3 8 -41 16 -60 10 -2 0
-15 4 -30 10 -20 7 -28 7 -31 -2 -3 -9 -9 -9 -23 -1 -12 7 -28 8 -42 3 -13 -5
-22 -4 -22 1 0 10 -51 -9 -60 -22 -3 -4 -19 -9 -35 -12 -35 -6 -65 -39 -65
-70 0 -28 -8 -36 -26 -29 -12 4 -11 8 3 19 16 12 15 14 -12 15 -16 1 -38 1
-48 1 -11 -1 -31 5 -45 13 -34 19 -85 39 -94 37 -5 -1 -8 2 -8 7 0 8 -11 12
-62 26 -5 2 -9 3 -10 5 -10 8 -176 18 -196 12 -15 -5 3 -32 22 -32 23 0 112
-54 141 -85 47 -52 55 -63 55 -80 0 -8 7 -15 15 -15 8 0 15 -5 15 -11 0 -6 -7
-8 -16 -5 -10 4 -22 -1 -29 -11 -11 -15 -14 -15 -40 5 -24 19 -30 20 -44 8
-21 -18 -38 -11 -86 36 -22 21 -52 41 -67 45 -16 3 -28 9 -28 13 0 8 -33 22
-95 41 -22 6 -86 13 -143 14 -104 3 -152 -8 -209 -45 -22 -14 -34 -48 -12 -34
36 22 213 -22 224 -56 3 -10 5 -22 3 -26 -1 -5 6 -23 17 -41 15 -25 22 -30 32
-21 19 16 27 3 18 -29 -5 -15 -8 -31 -7 -35 4 -17 -24 -6 -69 28 -26 20 -62
39 -81 41 -51 6 -170 6 -203 -2 -16 -3 -36 -7 -43 -9 -7 -1 -17 -7 -24 -14
-15 -15 17 -27 97 -36 75 -8 163 -43 171 -69 7 -23 -4 -37 -15 -18 -5 7 -12
12 -17 11 -17 -3 -94 23 -94 31 0 5 7 6 15 3 8 -4 15 -1 15 5 0 6 -4 12 -10
12 -5 1 -16 2 -22 3 -7 1 -19 -3 -27 -8 -8 -6 -30 -11 -50 -12 -20 0 -46 -4
-57 -8 -42 -13 -95 -16 -112 -5 -22 14 -91 -16 -142 -62 -75 -66 -87 -76 -135
-114 -27 -22 -57 -46 -65 -55 -42 -43 -111 -131 -140 -179 -76 -124 -290 -444
-329 -492 -19 -24 -21 -32 -10 -45 9 -11 9 -18 1 -26 -8 -8 -13 -4 -17 14 -3
13 -15 30 -27 37 -19 12 -19 11 -14 -17 6 -24 3 -30 -19 -40 -15 -7 -25 -20
-25 -33 0 -12 -8 -23 -18 -26 -27 -7 -48 -43 -31 -54 7 -4 17 -5 23 -2 5 3 6
1 3 -5 -4 -5 -16 -8 -26 -5 -15 4 -21 -2 -26 -26 -4 -17 -10 -31 -14 -31 -7 0
-29 -49 -71 -155 -4 -11 -8 -36 -9 -55 -1 -19 -10 -44 -20 -55 -21 -23 -29
-45 -37 -92 -7 -47 13 -42 26 7 6 22 15 38 20 35 4 -3 49 57 99 132 49 76 95
143 100 150 6 7 11 17 11 22 0 5 6 16 13 23 7 7 35 58 63 113 27 55 54 103 59
107 6 4 7 8 3 8 -12 0 123 233 191 328 36 52 80 113 96 136 41 58 102 101 148
105 31 2 37 -1 37 -17 0 -11 7 -25 15 -32 21 -17 10 -29 -26 -28 -56 2 -73
-32 -79 -154 -1 -10 -5 -18 -9 -18 -25 0 -146 -144 -146 -174 0 -22 -75 -97
-109 -109 -12 -5 -16 -13 -12 -23 4 -10 -4 -30 -19 -50 -14 -18 -25 -40 -25
-48 0 -9 -4 -17 -10 -17 -5 -1 -16 -2 -22 -3 -7 0 -15 -17 -18 -36 -4 -27 -10
-36 -28 -38 -20 -3 -22 -8 -17 -32 5 -23 1 -32 -26 -53 -18 -14 -38 -23 -44
-20 -12 4 -23 -20 -30 -65 -2 -13 -15 -32 -29 -43 -14 -11 -26 -29 -26 -39 0
-11 -7 -23 -17 -28 -22 -13 -10 -42 15 -35 11 2 24 15 30 28 8 17 16 22 32 18
18 -5 21 -2 18 17 -2 15 5 28 20 37 20 14 22 14 22 -1 0 -9 5 -16 11 -16 5 0
-11 -18 -36 -40 -25 -22 -50 -40 -56 -40 -5 0 -9 -7 -9 -15 0 -8 -9 -19 -21
-26 -17 -9 -25 -7 -44 11 -20 19 -23 19 -29 5 -9 -25 -7 -35 6 -32 24 4 20
-33 -4 -42 -28 -10 -83 -85 -74 -100 4 -5 -2 -14 -11 -20 -10 -5 -14 -13 -10
-17 4 -4 -6 -13 -23 -20 -16 -7 -30 -21 -30 -30 0 -11 -6 -15 -17 -11 -10 2
-24 6 -32 8 -9 2 -19 -7 -24 -23 -11 -27 1 -48 33 -61 11 -4 10 -6 -5 -6 -10
-1 -29 -13 -41 -28 l-22 -28 5 30 5 30 -21 -25 c-29 -36 -241 -446 -241 -467
0 -7 -4 -13 -10 -13 -5 0 -10 -5 -10 -12 0 -6 -13 -41 -29 -77 -15 -36 -38
-99 -50 -138 -12 -40 -27 -73 -33 -73 -5 0 -8 -6 -5 -13 3 -8 -5 -34 -18 -59
-12 -25 -26 -60 -30 -79 -4 -19 -12 -41 -19 -49 -14 -19 -36 -58 -36 -65 0
-21 83 18 126 59 39 38 108 64 118 47 5 -8 -38 -34 -59 -35 -5 -1 -20 -11 -33
-23 -12 -13 -30 -23 -39 -23 -9 0 -14 -2 -12 -5 3 -2 -24 -35 -59 -72 -35 -37
-84 -99 -110 -137 -31 -47 -48 -65 -50 -54 -2 9 2 27 9 39 9 18 8 24 -5 31 -9
5 -16 19 -17 31 0 19 -3 17 -17 -11 -13 -27 -14 -35 -3 -41 10 -6 7 -19 -13
-59 -14 -28 -26 -57 -26 -63 0 -7 -8 -18 -17 -25 -14 -10 -16 -16 -7 -31 7
-10 21 -18 33 -17 17 0 20 -4 14 -25 -8 -35 -8 -35 -34 -17 -21 14 -24 14 -40
0 -10 -9 -41 -17 -73 -19 -86 -6 -102 -20 -121 -103 -6 -31 -6 -33 18 -27 20
5 26 2 31 -18 5 -22 10 -25 43 -21 21 3 45 0 53 -6 13 -9 12 -12 -4 -25 -18
-14 -46 -19 -101 -18 -33 0 -96 11 -102 17 -3 3 -14 1 -23 -4 -42 -22 -69
-208 -43 -284 12 -36 12 -41 -6 -60 -36 -38 -39 -65 -21 -156 12 -56 17 -119
16 -184 -3 -89 -1 -99 16 -104 10 -2 18 -8 18 -13 0 -6 10 -14 23 -19 22 -9
22 -9 1 -9 -12 -1 -27 -8 -34 -16 -16 -19 -15 -82 1 -101 9 -11 8 -14 -4 -14
-8 0 -17 -9 -20 -20 -7 -26 -1 -229 8 -269 7 -34 29 -33 31 2 1 19 11 97 13
105 1 1 15 -5 31 -13 27 -14 31 -14 36 -1 3 8 20 18 37 21 18 4 40 9 50 11 29
9 19 -13 -13 -24 -16 -6 -54 -29 -85 -53 -45 -34 -55 -47 -56 -73 -5 -121 -4
-163 4 -181 15 -28 33 -45 42 -37 5 4 5 -1 2 -11 -4 -10 -7 -23 -7 -28 0 -5
-4 -9 -10 -9 -5 0 -10 6 -10 13 0 8 -9 22 -20 32 -19 17 -20 17 -20 -1 0 -10
7 -32 15 -48 8 -15 15 -34 15 -41 0 -6 10 -20 21 -31 12 -10 55 -71 97 -134
41 -63 86 -124 99 -135 28 -25 29 -33 3 -37 -19 -3 -18 -7 17 -58 48 -68 144
-165 220 -221 32 -24 74 -57 93 -74 55 -50 85 -66 99 -52 6 6 11 15 11 19 0 4
16 43 36 85 20 43 38 89 41 103 2 13 8 29 13 35 4 5 10 34 13 64 4 48 10 59
44 91 22 20 54 42 71 49 18 8 32 20 32 28 0 8 4 12 9 8 5 -3 29 -1 53 4 24 5
74 12 112 16 49 5 78 13 100 30 17 12 46 30 63 39 33 16 33 16 29 -6 -3 -13
-5 -27 -5 -31 -1 -5 -5 -6 -9 -3 -5 3 -28 -9 -51 -26 -32 -23 -45 -28 -51 -18
-5 8 -13 9 -21 4 -16 -10 -24 -11 -102 -18 -67 -6 -66 -5 -72 -35 -2 -11 -6
-25 -9 -30 -3 -5 1 -11 9 -15 8 -3 15 -12 15 -21 0 -17 -23 -16 -56 3 -12 6
-24 9 -27 6 -3 -3 -20 -7 -39 -8 -18 -1 -33 -8 -32 -14 2 -28 5 -32 18 -32 7
0 16 -10 20 -22 8 -32 7 -40 -3 -34 -4 3 -19 -3 -31 -14 -13 -11 -27 -20 -32
-20 -5 0 -4 -8 1 -18 7 -13 7 -22 0 -29 -8 -8 -5 -17 7 -31 43 -47 46 -52 29
-52 -9 0 -18 -7 -21 -15 -4 -8 -17 -15 -29 -15 -28 0 -65 -43 -65 -74 0 -12
-5 -27 -12 -34 -9 -9 -9 -12 0 -12 22 0 13 -37 -12 -48 -21 -9 -50 -74 -61
-132 -1 -8 -8 -14 -14 -12 -7 1 -11 -11 -9 -34 2 -36 -15 -58 -39 -49 -21 7
-15 -19 12 -56 l26 -34 -21 -17 c-11 -9 -20 -25 -20 -37 0 -14 -5 -19 -15 -15
-11 5 -15 -2 -15 -27 -1 -39 -19 -68 -39 -61 -11 4 -12 -2 -7 -24 4 -16 7 -33
7 -39 -1 -24 -22 -129 -30 -144 -5 -9 -12 -77 -15 -151 -8 -159 -13 -195 -32
-232 -8 -15 -14 -47 -14 -70 0 -24 -2 -113 -4 -198 -3 -127 0 -163 14 -200 9
-25 15 -52 13 -61 -3 -12 4 -14 33 -11 31 4 35 2 32 -14 -2 -11 3 -24 11 -30
9 -7 11 -16 5 -25 -4 -8 -7 -23 -6 -35 2 -11 -6 -28 -18 -39 -11 -10 -20 -26
-20 -37 0 -10 -3 -17 -7 -17 -23 4 -33 -4 -33 -25 0 -13 -7 -29 -14 -36 -8 -6
-20 -36 -26 -66 -7 -35 -16 -54 -26 -54 -8 0 -15 -6 -15 -12 -1 -7 -2 -19 -3
-26 0 -7 -6 -16 -12 -20 -16 -10 -42 -65 -49 -103 -3 -18 -12 -37 -19 -43 -9
-7 -16 -45 -19 -107 l-6 -96 48 -44 c52 -48 71 -76 67 -102 -3 -22 -16 -34
-18 -16 -6 56 -16 73 -59 99 -22 14 -45 24 -50 22 -5 -1 -10 2 -10 8 -5 41
-32 120 -40 120 -5 0 -9 -25 -9 -55 0 -30 5 -55 10 -55 6 0 10 -6 10 -14 0 -8
6 -16 13 -19 8 -2 12 -25 13 -63 0 -32 4 -67 9 -78 8 -18 7 -18 -18 -1 -25 16
-27 16 -33 1 -4 -9 -4 -20 -1 -23 9 -9 -12 -43 -27 -43 -22 0 3 -95 28 -107
12 -5 15 -8 9 -6 -20 4 -15 -14 8 -30 22 -16 63 -86 55 -94 -2 -3 -19 -12 -38
-21 -31 -16 -33 -20 -34 -72 -1 -36 -8 -69 -22 -95 -30 -55 -29 -152 3 -276
28 -113 42 -195 50 -299 10 -128 14 -167 35 -293 39 -239 52 -298 75 -352 27
-59 112 -179 176 -247 22 -24 59 -73 84 -110 35 -53 61 -78 129 -123 86 -57
177 -105 251 -132 38 -14 59 -20 145 -43 19 -6 69 -12 111 -16 l76 -6 23 31
c12 18 23 37 24 44 7 32 21 47 54 59 41 14 40 14 137 24 136 14 140 12 167
-46 13 -29 29 -49 37 -47 8 1 25 21 38 45 20 36 25 59 26 130 1 48 -1 101 -5
117 -9 47 -50 169 -61 183 -5 6 -6 12 -2 12 5 0 1 8 -7 18 -16 18 -57 127 -64
170 -3 15 -7 35 -10 45 -4 12 0 17 15 17 16 0 21 6 21 24 0 25 -30 44 -49 32
-5 -4 -17 12 -27 34 -10 22 -21 40 -26 40 -4 0 -8 7 -8 16 0 13 3 14 13 5 24
-19 28 2 5 26 -14 15 -25 20 -32 13 -17 -13 -29 -1 -56 60 -13 30 -32 67 -42
82 -10 14 -18 30 -18 35 0 5 -9 27 -19 49 -20 41 -19 54 5 54 12 0 15 11 13
50 -2 27 0 53 4 56 14 14 7 23 -20 26 -21 2 -29 11 -41 46 -7 23 -18 39 -24
36 -6 -4 -7 8 -4 32 9 57 16 74 29 74 8 1 7 5 -3 13 -31 26 -41 55 -28 80 7
12 17 25 22 28 5 4 6 15 2 24 -6 16 -5 16 19 1 22 -14 28 -15 53 -2 16 8 35
11 47 6 11 -5 33 -13 49 -19 l29 -12 -23 -24 c-22 -24 -23 -26 -6 -44 17 -19
17 -20 -4 -31 l-21 -11 23 -19 c22 -18 24 -18 38 -2 10 11 26 16 48 14 17 -2
32 1 32 7 0 15 -18 23 -25 11 -12 -19 -25 0 -25 35 0 30 4 36 28 41 67 15 63
9 67 90 0 18 -6 40 -15 50 -15 19 -62 45 -91 50 -8 2 -42 11 -75 19 -32 9 -68
18 -79 20 -11 3 -30 17 -41 31 -27 33 -80 41 -89 13 -6 -18 -42 -36 -52 -25
-4 3 1 14 10 24 10 10 17 30 17 45 0 28 34 59 56 50 22 -8 37 7 22 24 -17 21
-19 43 -6 67 7 12 13 30 14 41 1 11 5 49 8 85 9 87 13 97 41 104 14 4 25 13
25 22 0 8 -5 12 -10 9 -12 -7 -8 24 5 45 11 18 10 14 28 110 8 41 22 88 30
104 20 37 10 56 -13 26 l-17 -23 -7 39 c-4 22 -10 67 -13 101 -4 52 -2 64 11
69 15 6 15 7 0 18 -21 16 -27 65 -10 91 8 12 10 28 6 40 -5 13 -1 29 12 47 10
15 25 42 33 60 9 18 19 40 24 48 5 8 16 38 26 65 9 28 28 82 42 120 13 39 34
78 45 88 16 14 18 20 8 32 -9 11 -6 24 14 65 14 29 26 59 26 68 0 27 76 159
120 210 23 26 47 58 55 72 32 59 105 207 105 215 0 24 66 144 94 171 32 30 33
33 29 103 -3 68 -1 77 37 153 38 77 40 79 50 53 5 -14 10 -29 10 -32 0 -12 64
-139 74 -145 5 -4 22 -4 36 -2 21 5 27 0 39 -28 17 -38 75 -122 108 -157 13
-13 23 -27 23 -31 0 -6 12 -22 50 -67 5 -7 10 -17 10 -23 0 -5 5 -10 10 -10 6
0 10 -7 10 -16 0 -8 5 -12 10 -9 6 3 10 2 10 -3 0 -5 20 -34 45 -64 25 -30 45
-60 45 -65 0 -6 7 -16 15 -23 22 -18 85 -128 85 -147 0 -9 24 -57 54 -107 68
-115 158 -297 181 -367 40 -122 125 -278 177 -325 64 -59 182 -112 343 -154
162 -43 175 -45 290 -44 100 1 182 19 278 61 28 12 41 13 49 5 20 -20 -78
-103 -162 -136 -40 -16 -79 -29 -86 -29 -8 0 -14 -3 -14 -6 0 -10 -204 -14
-270 -6 -19 3 -56 7 -82 10 -26 3 -76 12 -110 21 -35 9 -73 18 -85 21 -13 3
-23 8 -23 12 0 11 -39 11 -46 0 -3 -5 -1 -16 6 -23 8 -11 8 -15 -2 -19 -9 -4
-5 -12 13 -29 15 -12 29 -31 33 -41 3 -10 10 -15 16 -12 7 4 6 13 -1 26 -13
26 -7 33 21 24 13 -4 23 -18 27 -36 l6 -30 21 20 c11 11 33 22 47 26 21 5 29
1 44 -21 l18 -27 12 23 13 23 6 -21 c8 -25 31 -29 40 -7 6 17 37 20 53 4 8 -8
17 -8 31 0 17 9 24 7 40 -14 11 -14 22 -21 24 -15 1 5 17 11 33 12 17 1 37 10
46 21 10 12 27 19 45 18 63 -4 76 -2 93 13 12 11 27 15 43 11 13 -3 36 1 53 9
17 9 39 16 51 16 12 0 25 10 32 25 7 16 23 28 42 31 32 7 51 41 29 55 -7 4
-17 5 -23 2 -5 -3 -6 -1 -2 5 4 7 19 9 35 6 24 -5 29 -2 35 21 4 16 2 33 -5
41 -16 19 -26 18 -32 -6 -3 -13 -11 -18 -20 -14 -21 8 -35 46 -26 71 4 12 8
39 7 60 0 23 10 55 26 83 14 25 26 54 26 66 0 26 -58 85 -108 110 -41 21 -53
34 -45 47 5 8 -25 36 -40 37 -5 0 -7 -8 -6 -18 1 -9 1 -20 0 -25 -2 -13 -48
23 -119 91 -37 35 -83 71 -102 79 -56 22 -84 37 -92 48 -8 10 -8 191 0 212 2
7 39 -24 81 -67 86 -89 103 -95 155 -55 35 26 61 32 71 15 3 -5 12 -10 20 -10
9 0 12 11 10 36 -2 20 2 42 8 48 18 17 98 62 127 71 14 4 40 19 58 33 25 19
59 29 146 43 65 11 136 29 167 44 30 13 70 28 89 31 19 4 53 18 75 32 22 14
103 56 180 94 77 37 172 85 210 106 76 41 217 117 304 163 29 16 67 29 83 29
22 0 29 4 25 14 -4 10 9 23 40 41 51 28 66 32 168 40 39 3 86 8 105 10 19 3
62 8 95 10 33 3 76 8 95 10 97 13 332 25 545 29 212 4 329 32 432 102 75 50
249 213 280 261 10 15 26 38 37 50 32 37 93 160 88 177 -1 4 3 15 9 22 11 13
13 63 10 197 -1 48 -22 56 -58 23 -15 -14 -29 -23 -31 -21 -3 2 -6 27 -8 55
-4 59 -24 106 -45 102 -39 -10 -49 -10 -55 0 -4 6 -1 14 7 18 20 13 -8 60 -38
61 -41 2 -44 4 -59 23 -11 16 -17 17 -27 7 -6 -6 -12 -16 -12 -21 0 -6 -3 -10
-7 -10 -5 0 -16 0 -25 0 -13 0 -14 3 -5 12 19 19 14 26 -13 23 -28 -3 -34 3
-41 42 -6 33 -25 58 -43 58 -14 0 -43 90 -33 100 3 3 0 5 -6 5 -7 0 -12 7 -12
15 0 8 -8 15 -19 15 -10 0 -26 12 -36 26 -12 19 -20 23 -28 15 -7 -7 -6 -15 4
-27 13 -16 12 -16 -6 -7 -11 6 -35 9 -52 8 -18 -1 -37 3 -44 11 -6 8 -8 14 -5
14 4 0 0 10 -9 22 -14 21 -14 24 6 39 l22 16 -34 31 c-19 17 -47 42 -64 55
-25 22 -28 27 -16 41 12 14 10 22 -12 53 -18 25 -23 41 -17 47 13 13 13 29 0
21 -16 -10 -12 11 5 25 8 7 15 23 15 36 0 19 5 24 25 24 l26 0 -22 30 c-19 25
-20 32 -9 45 11 14 10 17 -8 22 -12 3 -22 10 -23 17 -2 26 7 141 11 141 1 0 3
32 4 70 2 39 4 72 6 75 2 5 5 24 8 51 1 8 14 30 29 48 57 68 89 199 70 281 -9
35 -16 92 -23 181 -6 65 -4 77 10 82 15 6 15 10 -2 44 -26 51 -33 87 -37 196
-6 150 -34 242 -81 268 -38 20 -47 46 -50 140 -3 118 -19 193 -54 261 -31 59
-37 99 -20 142 10 28 24 111 22 139 -2 35 -24 132 -37 162 -7 17 -22 51 -34
77 -11 26 -23 64 -26 85 -3 21 -7 52 -11 68 -3 17 -9 50 -13 75 -8 52 -5 376
4 390 3 6 3 10 -2 10 -4 0 -9 31 -11 68 -2 54 -23 149 -66 297 -5 17 -17 49
-34 85 -8 19 -15 36 -14 37 1 2 -10 28 -23 58 l-25 56 22 8 c13 5 106 7 208 5
335 -6 355 -9 437 -71 76 -58 86 -7 33 172 -12 39 -22 75 -24 80 -1 6 -9 26
-18 45 -12 29 -29 81 -32 100 -5 28 -42 120 -49 120 -4 0 -5 5 -2 10 4 6 -5
45 -18 88 -53 164 -59 188 -59 224 1 21 3 42 6 47 4 5 9 30 11 54 3 25 8 56
10 68 3 13 8 37 10 52 3 16 17 68 32 115 24 81 26 101 27 277 l0 190 -48 135
c-26 74 -48 141 -48 148 -1 6 -5 12 -8 12 -4 0 -10 14 -14 32 -3 17 -12 39
-20 47 -8 9 -23 32 -34 52 -11 20 -26 47 -34 60 -19 34 -144 156 -214 209 -32
25 -60 48 -62 53 -2 4 -8 7 -13 7 -19 0 -119 71 -139 100 -12 17 -25 29 -27
26 -3 -3 -18 1 -32 9 -15 7 -40 12 -54 11 -15 -2 -30 0 -32 5 -3 4 -15 6 -28
3 -12 -2 -38 -7 -57 -11 -32 -6 -66 -8 -72 -3 -2 1 -24 2 -49 3 -29 1 -55 9
-66 20 -11 9 -22 14 -25 11 -10 -10 -58 -12 -64 -3 -8 13 -28 11 -43 -3z m917
-874 c72 -30 122 -107 122 -187 0 -34 -5 -48 -21 -58 l-20 -14 21 -48 c18 -41
21 -60 15 -120 -11 -122 -32 -162 -65 -122 -12 14 -15 14 -30 0 -9 -9 -25 -13
-34 -9 -21 8 -22 -22 -1 -34 14 -7 13 -11 -5 -27 -11 -10 -20 -14 -20 -9 0 5
-12 10 -27 10 -16 1 -40 2 -56 3 -58 3 -115 91 -102 158 5 21 9 46 10 56 2 20
22 37 43 37 16 0 15 10 -4 31 -8 9 -16 23 -18 31 -1 7 -4 18 -7 23 -5 9 -5
169 0 215 0 9 17 33 37 54 33 35 38 37 81 31 25 -3 62 -13 81 -21z m-3238
-545 c0 -5 -4 -9 -10 -9 -5 0 -10 7 -10 16 0 8 5 12 10 9 6 -3 10 -10 10 -16z
m-89 -36 c13 -16 12 -17 -3 -4 -10 7 -18 15 -18 17 0 8 8 3 21 -13z m89 -90
c0 -14 -45 26 -49 43 -2 15 2 13 23 -9 14 -15 26 -31 26 -34z m-423 31 c-3 -3
-12 -4 -19 -1 -8 3 -5 6 6 6 11 1 17 -2 13 -5z m-682 -198 c15 -2 35 -16 35
-24 0 -4 -11 -8 -25 -9 -54 -5 -65 -8 -65 -13 0 -3 -10 -6 -22 -7 -13 0 -36
-3 -53 -7 -68 -14 -75 -15 -75 -11 0 13 51 54 85 67 35 15 53 15 120 4z m4350
-126 c41 -16 124 -105 150 -163 25 -53 110 -320 119 -369 5 -32 2 -32 -64 -17
-40 10 -86 15 -171 18 -33 1 -65 58 -109 196 -71 221 -76 279 -29 319 33 28
62 32 104 16z m-3043 -443 c48 -34 113 -81 145 -103 32 -23 70 -52 84 -65 14
-13 41 -38 60 -54 19 -17 41 -39 49 -50 14 -18 14 -18 -15 1 -16 10 -37 27
-47 36 -9 9 -29 25 -45 35 -15 10 -32 21 -38 26 -48 37 -159 116 -200 143 -27
17 -60 42 -72 53 -13 12 -23 19 -23 15 0 -4 -9 1 -20 11 -11 10 -20 24 -20 32
0 18 27 3 142 -80z m497 -510 c0 -21 -1 -21 -9 -2 -12 28 -12 37 0 30 6 -3 10
-16 9 -28z m-2474 -16 c-3 -6 -16 -16 -28 -22 -21 -11 -21 -10 2 15 23 25 40
29 26 7z m2568 -62 c3 -13 1 -19 -6 -16 -15 5 -22 37 -9 37 5 0 12 -9 15 -21z
m786 -268 c-13 -11 -26 -17 -29 -14 -6 6 30 33 43 33 5 0 -1 -9 -14 -19z m-59
-24 c0 -2 -10 -12 -22 -23 l-23 -19 19 23 c18 21 26 27 26 19z m-3840 -322 c0
-8 0 -18 1 -22 0 -4 -3 -9 -8 -10 -5 -2 -10 8 -11 22 -1 14 3 25 8 25 6 0 10
-7 10 -15z m-50 -110 c0 -8 -4 -15 -10 -15 -5 0 -10 7 -10 15 0 8 5 15 10 15
6 0 10 -7 10 -15z m-36 -50 c-4 -8 -8 -15 -10 -15 -2 0 -4 7 -4 15 0 8 4 15
10 15 5 0 7 -7 4 -15z m4267 -567 c0 -2 2 -23 5 -48 18 -179 37 -261 94 -401
37 -91 43 -114 42 -179 0 -41 -2 -88 -6 -104 -7 -38 11 -112 37 -152 11 -17
46 -47 77 -67 88 -57 94 -67 76 -112 -9 -21 -30 -53 -46 -72 l-30 -34 45 -55
c25 -31 48 -62 53 -69 10 -17 70 -47 81 -41 5 3 44 8 87 12 89 7 126 -3 182
-51 37 -31 112 -139 112 -161 0 -26 36 -51 83 -57 50 -7 101 -34 122 -64 8
-11 17 -46 20 -79 4 -32 14 -77 22 -99 8 -22 19 -65 25 -95 15 -80 28 -85 29
-9 0 40 3 57 8 45 10 -27 6 -130 -7 -152 -6 -11 -21 -19 -34 -19 -15 0 -24 -7
-26 -20 -5 -25 -21 -45 -37 -45 -9 0 -10 9 -2 40 10 34 9 43 -6 57 -16 16 -17
16 -18 -7 -2 -55 -11 -88 -44 -155 -61 -123 -103 -154 -202 -150 -64 2 -103
22 -103 52 0 7 -7 13 -15 13 -8 0 -34 17 -57 38 -22 20 -43 32 -45 26 -10 -29
-33 -47 -72 -54 -53 -9 -349 -6 -456 6 -44 5 -147 7 -230 5 -301 -7 -411 -4
-520 13 -83 13 -102 16 -125 21 -14 3 -37 7 -51 10 -44 8 -142 42 -199 69 -30
14 -63 26 -72 26 -10 0 -18 4 -18 8 0 5 -16 14 -35 22 -19 8 -35 17 -35 22 0
4 -7 8 -15 8 -7 0 -18 6 -22 13 -9 14 -29 27 -103 64 -64 33 -75 42 -84 70 -6
17 26 125 66 222 6 14 12 31 14 36 1 6 8 24 15 40 6 17 13 35 15 40 2 10 51
147 61 175 3 8 7 21 9 28 7 34 37 52 86 52 47 0 189 41 216 62 26 21 13 39
-25 36 -63 -5 -56 27 24 110 76 78 361 376 437 456 26 28 78 84 115 125 36 41
84 94 106 117 22 24 63 69 90 100 28 32 73 83 101 114 29 30 67 73 85 95 19
23 44 51 57 65 12 13 22 27 22 32 0 7 19 12 21 6z m-4789 -530 c-8 -8 -9 -4
-5 13 4 13 8 18 11 10 2 -7 -1 -18 -6 -23z m-35 -510 c-3 -8 -6 -5 -6 6 -1 11
2 17 5 13 3 -3 4 -12 1 -19z m458 -350 c39 -11 84 -22 100 -25 41 -7 57 -22
49 -45 -10 -32 -36 -57 -71 -69 -18 -6 -31 -14 -29 -18 3 -4 7 -19 10 -34 4
-21 -2 -31 -30 -52 -18 -14 -38 -34 -44 -44 -9 -17 -6 -19 29 -17 42 2 81 -8
81 -22 0 -5 -19 -7 -42 -5 -123 11 -163 9 -212 -8 -27 -10 -52 -17 -54 -14 -3
3 -28 -8 -56 -24 -28 -15 -77 -39 -108 -51 -32 -13 -58 -27 -58 -32 0 -13 71
2 114 24 108 55 243 88 301 74 13 -3 30 -16 36 -27 10 -20 9 -21 -15 -17 -26
5 -76 -29 -76 -52 0 -15 16 -12 30 5 14 17 34 9 26 -11 -3 -7 7 -22 22 -33 27
-19 27 -20 7 -35 -11 -8 -26 -16 -32 -16 -7 0 -13 -5 -13 -10 0 -9 -42 -32
-62 -34 -4 -1 -15 -12 -24 -25 -13 -18 -18 -20 -25 -10 -14 23 -21 2 -14 -40
l7 -40 31 13 c18 7 31 19 29 26 -6 25 9 47 44 63 35 17 35 17 29 -3 -5 -16 -2
-20 17 -19 13 0 32 -2 43 -6 18 -5 22 0 30 37 11 47 -3 92 -37 116 -24 18 -23
35 2 27 13 -4 26 0 37 11 16 15 16 17 0 29 -72 52 106 8 186 -47 39 -26 87
-83 87 -102 0 -6 7 -24 16 -41 9 -16 19 -67 24 -111 5 -45 14 -100 21 -122 10
-36 10 -45 -7 -69 -15 -23 -19 -25 -22 -10 -2 9 1 32 8 51 11 34 2 74 -22 103
-9 11 -14 10 -30 -4 -24 -21 -49 -3 -28 21 7 9 16 13 21 11 9 -6 33 34 25 43
-9 8 -58 12 -78 6 -9 -3 -22 -20 -28 -39 -6 -18 -24 -50 -41 -71 -16 -20 -29
-42 -29 -49 0 -7 -11 -24 -25 -39 -13 -14 -32 -43 -42 -64 -18 -36 -18 -37
-21 -10 -2 15 5 55 15 90 22 76 24 113 3 113 -15 0 -26 -19 -60 -102 -26 -66
-38 -131 -41 -214 -1 -35 -9 -74 -16 -86 -8 -12 -11 -28 -7 -34 4 -7 8 -22 10
-33 2 -12 10 -43 18 -71 11 -34 12 -45 3 -35 -6 8 -24 21 -39 27 -15 7 -36 30
-47 51 -22 43 -48 69 -58 58 -4 -4 -2 -16 5 -26 19 -31 15 -41 -13 -28 -15 7
-25 20 -25 32 -1 12 -7 32 -14 46 -12 21 -12 26 2 36 14 10 11 13 -18 19 -48
11 -70 26 -70 50 0 11 -9 26 -20 33 -17 10 -22 9 -32 -8 -16 -26 -28 -26 -28
0 0 11 -6 20 -14 20 -11 0 -14 12 -13 45 2 47 -14 62 -24 23 -6 -23 -6 -23
-14 4 -4 15 -13 32 -21 39 -11 9 -10 15 7 38 21 29 33 158 18 196 -10 25 -10
23 -14 -56 -2 -37 -11 -82 -19 -100 -15 -33 -15 -31 -11 56 6 111 14 176 24
190 4 5 8 27 10 48 3 39 -12 49 -28 19 -9 -16 -14 -44 -35 -172 -3 -14 -5 -61
-5 -105 -1 -49 -5 -75 -10 -66 -11 16 -14 177 -5 193 4 7 8 21 9 32 1 12 5 38
10 59 6 31 4 37 -9 37 -9 0 -16 -7 -16 -15 0 -8 -4 -15 -10 -15 -5 0 -10 -10
-10 -22 0 -31 -15 -54 -25 -39 -4 7 -4 18 -1 26 3 8 1 17 -4 20 -12 7 -30 -36
-30 -71 0 -13 -4 -24 -9 -24 -15 0 -7 100 9 110 8 5 17 7 21 4 22 -13 51 118
33 148 -9 14 -24 -11 -24 -40 0 -13 -4 -20 -10 -17 -5 3 -10 15 -10 26 0 32
-22 17 -50 -35 -24 -43 -49 -61 -42 -29 6 28 127 228 152 253 14 14 57 77 63
92 12 32 -5 25 -46 -20 -23 -25 -53 -57 -65 -71 -37 -40 -122 -171 -124 -189
0 -10 -2 -21 -3 -27 -2 -5 -3 -15 -4 -22 0 -6 -9 -10 -18 -8 -10 2 -21 4 -26
4 -10 1 -2 104 9 108 28 10 38 25 38 57 0 19 4 32 9 29 14 -9 67 49 67 73 0
13 -8 28 -17 34 -14 8 -8 9 25 5 24 -4 42 -3 42 3 0 14 116 102 134 102 9 0
16 4 16 9 0 11 55 46 86 55 18 6 20 3 17 -26 -4 -31 -3 -32 11 -14 9 11 16 25
16 30 0 6 12 12 28 12 31 2 125 35 130 46 4 9 28 4 127 -24z m900 -173 c17 -3
46 -8 65 -10 19 -3 60 -11 90 -19 30 -8 92 -24 138 -35 45 -12 101 -30 122
-41 22 -11 40 -18 40 -15 0 3 19 -8 42 -25 22 -16 45 -30 50 -30 5 0 15 -6 22
-12 7 -7 38 -35 69 -62 32 -26 57 -56 57 -65 0 -10 14 -30 30 -44 31 -28 38
-55 18 -75 -8 -8 -5 -16 13 -30 13 -11 24 -32 25 -48 1 -16 3 -34 3 -41 1 -7
8 -10 16 -7 8 4 15 2 15 -4 0 -6 -4 -12 -10 -14 -5 -1 -13 -18 -16 -37 -5 -24
-4 -32 4 -27 6 4 21 2 33 -4 19 -11 19 -13 5 -29 -9 -10 -16 -24 -16 -32 -1
-8 -17 -22 -36 -31 -35 -16 -36 -16 -31 3 7 25 -11 35 -26 15 -7 -10 -22 -15
-37 -13 -16 3 -37 -5 -57 -21 -32 -23 -44 -52 -23 -52 6 0 10 5 10 10 0 6 5
10 10 10 6 0 10 -11 10 -25 0 -25 -23 -35 -34 -16 -11 18 -45 -1 -70 -40 -14
-21 -26 -43 -26 -48 0 -6 -8 -14 -17 -20 -15 -8 -16 -13 -5 -30 6 -12 12 -29
11 -38 0 -11 -3 -13 -6 -5 -2 6 -11 12 -18 12 -7 0 -16 -6 -19 -12 -4 -7 -5
-4 -2 8 5 28 -21 64 -33 45 -7 -11 -11 -9 -20 7 -12 23 -41 20 -41 -5 0 -13
-3 -13 -16 -2 -9 7 -28 15 -41 17 -21 2 -24 0 -18 -15 4 -10 9 -27 10 -38 2
-11 6 -29 10 -40 5 -14 0 -11 -18 10 l-24 29 -9 -24 c-11 -35 -11 -35 -13 -82
-2 -71 -16 -35 -20 50 -1 29 -4 32 -27 29 -15 -2 -32 -11 -39 -21 -9 -12 -15
-14 -20 -6 -4 6 -1 19 7 28 20 25 16 45 -17 80 l-30 32 -23 -34 c-19 -27 -21
-39 -13 -54 8 -15 7 -23 -3 -31 -10 -9 -17 0 -33 44 -21 56 -20 77 3 47 12
-16 13 -16 14 0 0 9 5 18 12 20 7 3 9 12 5 22 -5 12 -13 16 -23 12 -14 -5 -15
-4 -5 8 19 23 -10 27 -35 5 -20 -19 -21 -19 -16 11 4 26 1 30 -18 30 -18 0
-21 -4 -16 -23 3 -15 -1 -28 -13 -39 -17 -15 -18 -14 -18 9 0 26 -50 86 -65
77 -4 -3 -8 -13 -8 -24 0 -11 -10 -20 -25 -24 -16 -4 -25 -13 -25 -26 0 -10
-9 -22 -20 -25 -11 -3 -20 -11 -20 -16 0 -5 -5 -9 -10 -9 -6 0 -22 -12 -37
-26 -35 -35 -41 -22 -9 20 14 19 26 39 26 44 0 5 7 15 15 22 9 7 13 15 11 18
-3 2 1 20 9 39 14 32 11 63 -5 63 -4 0 -10 10 -13 21 -4 14 -11 20 -21 16 -21
-8 -37 16 -41 62 -3 33 0 40 16 43 25 4 26 22 2 27 -10 2 -21 8 -26 15 -5 8
-11 6 -18 -7 -6 -9 -14 -15 -20 -12 -14 9 -79 -17 -79 -32 0 -14 -19 -19 -21
-5 0 4 -2 16 -4 27 -2 11 -6 48 -9 82 -5 62 -56 184 -91 219 -8 9 -15 20 -15
25 0 5 -6 9 -14 9 -8 0 -16 4 -18 9 -1 5 -31 23 -66 39 -45 22 -58 31 -45 36
9 4 21 2 27 -4 18 -18 41 -10 85 30 23 22 47 40 53 40 11 0 4 -10 -50 -69 -22
-24 -22 -26 -6 -38 35 -25 74 -9 89 37 3 11 9 21 13 21 4 1 20 3 35 5 16 1 36
9 44 16 12 10 17 9 28 -5 15 -20 49 -12 41 10 -3 8 1 24 9 37 19 29 11 36 -28
25 -58 -17 -65 -5 -14 25 37 23 105 22 151 -1 28 -15 29 -15 22 11 -4 18 -1
28 11 34 17 10 172 8 228 -3z m-1562 -57 c-3 -15 -9 -26 -13 -23 -4 3 -28 -18
-54 -47 -25 -28 -48 -49 -51 -47 -8 8 53 93 87 121 18 14 34 26 35 25 0 -1 -1
-14 -4 -29z m752 -8 c-3 -5 -11 -10 -16 -10 -6 0 -7 5 -4 10 3 6 11 10 16 10
6 0 7 -4 4 -10z m-825 -320 c19 -17 26 -27 15 -22 -11 4 -27 8 -35 7 -20 -2
-40 14 -40 31 0 23 23 16 60 -16z m2447 -102 c-3 -8 -6 -5 -6 6 -1 11 2 17 5
13 3 -3 4 -12 1 -19z m-2428 -32 c7 -8 8 -17 3 -20 -6 -3 -12 3 -15 14 -6 24
-4 25 12 6z m69 -461 c15 -56 9 -53 -18 8 -13 28 -31 63 -42 76 -10 13 -15 28
-11 34 7 12 7 21 -1 167 l-5 95 34 -170 c18 -93 38 -188 43 -210z m927 337
c-15 -16 -16 -16 -13 3 4 23 21 39 27 24 2 -6 -4 -18 -14 -27z m254 -16 c8 -9
10 -41 6 -97 -7 -104 -11 -119 -37 -119 -17 0 -19 5 -15 27 6 33 -1 53 -18 53
-16 0 -23 -18 -19 -50 1 -14 3 -33 3 -42 1 -9 10 -20 21 -23 23 -7 27 -25 5
-25 -8 0 -15 -8 -16 -17 -1 -23 -26 46 -33 88 -6 43 -25 61 -32 32 -4 -12 -15
-25 -25 -28 -10 -4 -19 -11 -19 -16 0 -5 -4 -9 -10 -9 -5 0 -2 16 7 35 9 19
22 35 29 35 21 0 52 54 62 106 8 40 11 45 17 27 4 -13 13 -23 20 -23 19 0 36
25 29 44 -8 20 9 21 25 2z m-308 -59 l-23 -22 17 28 c10 15 20 25 23 22 3 -3
-5 -16 -17 -28z m1539 -34 c-1 -21 -13 -52 -20 -48 -10 6 0 55 11 55 5 0 9 -3
9 -7z m-195 -23 c3 -5 1 -10 -4 -10 -6 0 -11 5 -11 10 0 6 2 10 4 10 3 0 8 -4
11 -10z m-1410 -53 c-8 -21 -18 -37 -20 -37 -3 0 2 16 10 36 8 20 15 39 15 42
0 3 2 3 5 0 3 -3 -2 -21 -10 -41z m-78 -66 c-8 -52 -8 -66 4 -75 8 -6 15 -31
16 -56 1 -40 0 -42 -9 -20 -22 53 -28 98 -22 163 4 38 10 65 14 60 5 -4 3 -37
-3 -72z m1405 4 c4 -17 1 -25 -9 -25 -8 0 -11 5 -8 10 3 6 1 10 -4 10 -6 0
-17 -14 -24 -32 -7 -18 -16 -28 -20 -22 -7 13 41 96 52 89 5 -2 11 -16 13 -30z
m-1211 -62 c-21 -23 -52 -48 -69 -57 -17 -9 -36 -24 -41 -33 -6 -10 -11 -13
-11 -7 0 24 151 166 157 147 2 -5 -14 -28 -36 -50z m5829 18 c13 -25 13 -64 0
-56 -5 3 -7 12 -4 19 3 7 -2 20 -10 29 -18 18 -20 27 -6 27 5 0 14 -9 20 -19z
m-5999 -24 c-10 -9 -11 -8 -5 6 3 10 9 15 12 12 3 -3 0 -11 -7 -18z m5959 -2
c-7 -9 -15 -13 -19 -10 -3 3 1 10 9 15 21 14 24 12 10 -5z m-6325 -15 c-3 -5
-10 -10 -16 -10 -5 0 -9 5 -9 10 0 6 7 10 16 10 8 0 12 -4 9 -10z m6398 -39
c5 -1 5 -7 0 -13 -4 -7 -6 -22 -4 -33 2 -18 1 -19 -13 -4 -24 22 -29 58 -8 54
9 -2 21 -4 25 -4z m-5216 -93 c-3 -8 -6 -5 -6 6 -1 11 2 17 5 13 3 -3 4 -12 1
-19z m60 -40 c-3 -7 -5 -2 -5 12 0 14 2 19 5 13 2 -7 2 -19 0 -25z m-1406
-127 c46 -27 93 -57 105 -68 11 -10 13 -13 5 -8 -9 6 -41 23 -71 39 -68 34
-88 46 -112 69 -26 25 -20 22 73 -32z m811 -85 c-11 -42 -18 -53 -23 -40 -6
20 6 69 24 92 17 21 16 9 -1 -52z m-607 -38 c19 -13 35 -26 35 -30 0 -12 -5
-10 -45 22 -45 35 -39 39 10 8z m286 -161 c-10 -9 -11 -8 -5 6 3 10 9 15 12
12 3 -3 0 -11 -7 -18z m274 -69 c-29 -76 -45 -104 -45 -76 0 20 62 160 68 154
2 -3 -8 -38 -23 -78z m5235 31 c0 -6 -4 -7 -10 -4 -5 3 -10 11 -10 16 0 6 5 7
10 4 6 -3 10 -11 10 -16z m-3990 -68 c-1 -13 -49 -51 -54 -42 -7 11 4 43 17
53 11 7 37 0 37 -11z m779 -305 c10 -28 50 -116 89 -196 38 -80 75 -165 82
-190 7 -25 19 -58 27 -73 16 -31 12 -44 -9 -31 -7 4 -19 9 -28 10 -30 4 -58
13 -76 23 -11 5 -37 18 -59 28 -77 34 -189 105 -221 141 -49 54 -112 187 -119
252 -4 30 -8 57 -11 59 -2 2 1 10 7 18 6 7 8 13 3 13 -5 0 -9 16 -9 35 0 19 3
35 8 35 4 0 6 3 6 8 -8 48 34 121 64 109 8 -3 24 1 36 9 13 9 44 15 76 15 31
0 58 6 62 12 4 7 18 -41 30 -106 12 -66 31 -142 42 -171z m-2109 125 c-6 -22
-15 -43 -20 -46 -5 -3 -4 9 1 27 6 18 13 41 16 51 11 36 14 8 3 -32z m-75
-208 c-22 -76 -44 -129 -44 -113 -1 26 44 160 53 160 3 0 -1 -21 -9 -47z
m-114 -374 c-6 -16 -10 -18 -10 -7 -1 22 12 55 16 42 2 -6 -1 -22 -6 -35z
m-20 -56 c-12 -20 -14 -14 -5 12 4 9 9 14 11 11 3 -2 0 -13 -6 -23z m-21 -135
c-1 -7 -7 -26 -15 -43 -12 -24 -14 -25 -8 -5 3 14 6 33 5 43 0 9 3 17 9 17 5
0 9 -6 9 -12z m-63 -125 c-3 -10 -5 -4 -5 12 0 17 2 24 5 18 2 -7 2 -21 0 -30z
m1 -175 c-6 -24 -14 -47 -19 -52 -8 -9 8 71 17 86 11 17 11 6 2 -34z m2899
-155 c-2 -21 -4 -6 -4 32 0 39 2 55 4 38 2 -18 2 -50 0 -70z m-2975 -25 c-6
-6 -7 0 -4 19 5 21 7 23 10 9 2 -10 0 -22 -6 -28z m-272 -1168 c0 -5 -4 -10
-10 -10 -5 0 -10 5 -10 10 0 6 5 10 10 10 6 0 10 -4 10 -10z m33 -30 c-8 -30
-20 -33 -20 -5 0 14 5 25 12 25 8 0 11 -8 8 -20z m47 -30 c-18 -11 -24 -6 -16
16 5 14 9 15 19 5 9 -9 9 -14 -3 -21z m99 -47 c7 -18 20 -29 34 -30 32 -2 77
-21 77 -32 0 -6 -12 -6 -31 -1 -17 5 -34 9 -38 8 -26 -3 -41 8 -64 53 -24 43
-25 49 -9 40 11 -6 24 -23 31 -38z m181 -73 c0 -5 -9 -10 -20 -10 -11 0 -20 5
-20 10 0 6 9 10 20 10 11 0 20 -4 20 -10z m-490 -30 c0 -5 -5 -10 -11 -10 -5
0 -7 5 -4 10 3 6 8 10 11 10 2 0 4 -4 4 -10z m1303 -368 c15 -9 27 -22 27 -28
0 -7 8 -15 17 -18 12 -5 13 -10 5 -18 -9 -9 -22 -8 -52 2 -22 7 -40 17 -40 22
0 4 -5 8 -10 8 -15 0 -80 43 -80 53 0 13 102 -3 133 -21z m-157 -56 c8 -8 14
-20 14 -28 0 -7 -7 -2 -16 10 -8 12 -20 19 -26 16 -7 -4 -8 -2 -4 4 9 15 14
15 32 -2z m-193 -497 c-4 -4 -6 18 -3 49 l5 57 3 -49 c2 -27 0 -52 -5 -57z
m-599 79 c-6 -14 -74 -73 -74 -65 0 5 72 77 77 77 1 0 0 -6 -3 -12z m-114
-118 c0 -5 -5 -10 -11 -10 -5 0 -7 5 -4 10 3 6 8 10 11 10 2 0 4 -4 4 -10z"/>
</g>
</svg>
